<?xml version="1.0"?>
<svg xmlns="http://www.w3.org/2000/svg" version="1" viewBox="0 0 24 24" enable-background="new 0 0 24 24">
    <path d="M 11 2 C 7.4064738 2 4.3818926 4.3957212 3.40625 7.625 C 1.3987557 8.6547295 0 10.654193 0 13 C 0 16.32381 2.6761905 19 6 19 L 7 19 L 7 17 L 6 17 C 3.7238095 17 2 15.27619 2 13 C 2 11.312698 3.0378272 9.8738754 4.59375 9.21875 L 5.0625 9.03125 L 5.1875 8.53125 C 5.779113 5.9957658 8.1646465 4 11 4 C 13.7625 4 16.070476 5.8179759 16.75 8.28125 L 16.9375 9 L 17.6875 9 L 18 9 C 20.27619 9 22 10.72381 22 13 C 22 15.27619 20.27619 17 18 17 L 17 17 L 17 19 L 18 19 C 21.32381 19 24 16.32381 24 13 C 24 9.7976374 21.497907 7.2483127 18.34375 7.0625 C 17.204913 4.0996161 14.374854 2 11 2 z M 12 12 L 9 19 L 12 19 L 12 24 L 15 17 L 12 17 L 12 12 z"/>
</svg>
